<svg xmlns="http://www.w3.org/2000/svg" viewBox="0 0 660.97 678.95"><defs><clipPath id="clip-path"><path d="M0 0h660.97v678.95H0z" style="fill:none"/></clipPath><style>.cls-3{fill:#002038}.cls-4{fill:#ffd1f1}.cls-5{fill:#fff}.cls-6{fill:#673671}</style></defs><g id="Layer_2" data-name="Layer 2"><g id="图层_1" data-name="图层 1" style="clip-path:url(#clip-path)"><path d="M651.7 673.93c18.7-11.3 5.2-31-6.3-40.6a77.28 77.28 0 0 0-39.6-17.4 2.3 2.3 0 0 1-2.2-2.3c-1.1-17.9-8.4-39.8-21.4-52.9a73.52 73.52 0 0 0-10.5-8.7.91.91 0 0 1-.4-.8 1.23 1.23 0 0 1 .4-.8c4.6-3.3 9.1-6.6 13.6-10 16.2-12.3 33.1-28.3 42.3-46.7a.9.9 0 0 0 .1-.5c-.8-10-6.8-20.8-11.6-29.1a418.52 418.52 0 0 0-37-53.6 1 1 0 0 1-.2-.7c1.5-14.5-13.8-35.1-26.3-41.1a69.77 69.77 0 0 0-16.1-5.5 1.06 1.06 0 0 1-.8-.9 464.68 464.68 0 0 0-9.2-71.5.83.83 0 0 1 .2-.8 1 1 0 0 1 .7-.4 46.19 46.19 0 0 0 23.4-10.9c16-14.1 18-38.6-.6-52-7.9-5.7-17.1-8.2-27.6-7.6a68.18 68.18 0 0 0-10.1 1.4 1.09 1.09 0 0 1-1.2-.7l-.9-3.3a1 1 0 0 1 .2-.9.81.81 0 0 1 .9-.3 54.78 54.78 0 0 0 21.9-1.4 27.28 27.28 0 0 0 18.9-33.6c-5.6-20-26.6-30.9-46.6-31.1a104.32 104.32 0 0 0-27.7 3.2 1 1 0 0 1-1.1-.4 217.65 217.65 0 0 0-18.5-22.2 1.14 1.14 0 0 1-.3-.8.84.84 0 0 1 .4-.7 95.26 95.26 0 0 0 17.4-14.8Q483.7 105 487 97c10.5-25.6-6.4-55.5-36.2-51.9-16.4 2-30.8 14.3-39.3 28-2.7 4.3-5.2 8.8-7.6 13.4a1 1 0 0 1-.6.5.78.78 0 0 1-.8-.1 219.71 219.71 0 0 0-61.3-22.7 1 1 0 0 1-.8-1.2 67.94 67.94 0 0 0-.3-28.4C336.2 17.23 322.4.83 303.4 0c-13.1-.6-25.7 9.2-30.5 20.6-5.1 12.2-6.6 25.4-4.4 39.5a.84.84 0 0 1-.2.7 1 1 0 0 1-.7.4 303.26 303.26 0 0 0-52.3 13.1 1 1 0 0 1-1.1-.4C197 50.23 164.3 27 136.5 52.43c-14 12.8-18.7 36.1-7 52.2a108.36 108.36 0 0 0 12 13.3 1 1 0 0 1 0 1.4 188.12 188.12 0 0 0-27.7 34c-2.1 3.2-5.1 6.7-6.7 9.3s-4 8.6-7.4 18a.91.91 0 0 1-1.1.6 102.35 102.35 0 0 0-12.2-1.5c-23.2.8-54.2 16.2-57.8 42-1.9 13.7 5.5 26.1 19.3 29.4 7.9 1.9 17.3.3 24.9-2.7 4.3-1.7 7.7-3 10.3-3.9a1.23 1.23 0 0 1 1 .2 1.09 1.09 0 0 1 .4.9q-2.1 17.25-2.7 34.8a1.08 1.08 0 0 1-1 1 55.19 55.19 0 0 0-23.5 5.5c-15.3 7.4-34.3 23.7-36.5 41.5-1.9 15.6 8.9 30.9 24.8 30.6 14.1-.3 27.4-10.5 34.8-22.7a2.62 2.62 0 0 1 2-1.4.84.84 0 0 1 .7.2 1 1 0 0 1 .4.7l4.2 29.8a1 1 0 0 1-.8 1.1 113.1 113.1 0 0 0-15.9 5.1c-16.2 6.6-28.7 20.1-32.2 37.4-2.6 13 1.4 28.2 13.9 34.8 17.5 9.2 32.6-4.1 41.3-17.8 1.5-2.4 3.1-4.8 4.6-7.2.8-1.2 1.4-1.1 1.8.2 3.1 10.1 6.4 20 10.1 29.9a1.09 1.09 0 0 1-.5 1.3 120.27 120.27 0 0 0-18.1 9.7c-11.7 7.5-23.3 19.1-26.7 32.3-5.9 23.2 16 47.9 39.8 35.6 9.1-4.7 14.8-14 19.2-23.2a30.18 30.18 0 0 1 2.7-4.8 24.09 24.09 0 0 1 3.4-3.7.78.78 0 0 1 .8-.2c.3.1.6.2.7.5a400.37 400.37 0 0 0 20.7 35.2.78.78 0 0 1 .1.8.9.9 0 0 1-.6.6 128.42 128.42 0 0 0-28.9 17c-22.8 17.8-38.6 37.4-45.4 66.4a1.05 1.05 0 0 1-1 .8c-5.7-.4-9.6-.7-11.9-.8-23.2-1-41.8 7.2-55.6 24.5C3.7 648-1.3 657 .3 666.13c1.4 8 6.6 12.7 14.8 12.8 12.2.2 27.2-.8 36.6-1.1 35.8-1.3 71.6-2.7 107.4-4a.76.76 0 0 0 .5-.2 10.24 10.24 0 0 0 3.8-4.4c4.2-12 .9-24.4-6.5-34.6a72 72 0 0 0-28-23.3.75.75 0 0 1-.5-.7 1.08 1.08 0 0 1 .2-.8l2.4-3a1 1 0 0 1 1.2-.3c22.8 11.8 44.6 10.2 65.2-4.8 2.8-2 5.6-4.1 8.5-6.2a1.06 1.06 0 0 1 1.3.1c28.1 25.7 62.7 45.4 100.3 52.6a243.31 243.31 0 0 0 36.2 4.1c15.4.4 30.1-1.9 45.6-5.1a199.9 199.9 0 0 0 63.1-25.3q23.4-14.1 38.5-33.3a1.23 1.23 0 0 1 .8-.4 1.14 1.14 0 0 1 .8.3 44.53 44.53 0 0 0 8.5 7.7 81.3 81.3 0 0 0 29.7 13.3 32.79 32.79 0 0 0 12.8.5.78.78 0 0 1 .8.2 1.23 1.23 0 0 1 .4.8v4.2a1.05 1.05 0 0 1-.5.9A49.74 49.74 0 0 0 525 633c-8.9 13.3-9.8 31.3 5.2 40.6a13.69 13.69 0 0 0 7.2 1.7c34.6 0 69.3-.1 103.9-.3 4.2.23 6.5 1.23 10.4-1.07Zm-157-175a23.88 23.88 0 0 0 4.3-6.4 9.68 9.68 0 0 0-.9-9.3c-4.7-6.8-13.8-5.4-20.4-2.2a1.06 1.06 0 0 1-1.2-.2l-2.6-2.8a.91.91 0 0 1-.1-1.2c4-6.3 7.8-14.2-.4-19.5-5.4-3.4-11.2-3.4-17.4-.1a1.06 1.06 0 0 1-1.2-.2 267.48 267.48 0 0 1-24.4-29.8c-11.2-15.8-8.6-31.8.5-47.9a1.18 1.18 0 0 0 .1-.8.9.9 0 0 0-.6-.6 46.07 46.07 0 0 1-22.9-19.3 5.43 5.43 0 0 1-.3-5.5c4.6-9.5 22.7-23.9 33.4-24.5a1.14 1.14 0 0 1 .8.3c8.6 9.4 14 20.3 20.1 31.3a1 1 0 0 0 1.3.4c7.5-3.7 18.6-6.6 26.7-3.5a76.08 76.08 0 0 1 21.1 12.4 328.53 328.53 0 0 1 30.3 28.7 1.14 1.14 0 0 1 .3.8.75.75 0 0 1-.5.7c-2.9 1.8-4.8 3.9-5.5 6.1-5.5 17.1 14.3 22.1 25.8 16.3a1 1 0 0 1 1.2.3c15.1 18.5 29.9 39.9 39.2 62 3.3 7.8-3.1 15.3-8.1 20.4-13.3 13.5-36 34.9-55.4 34.5-4.7-.1-15.6-10.4-18.9-13.9-8-8.5-16.1-17-24.3-25.4a.65.65 0 0 1 0-1.1Zm-371.3-262.4a164.28 164.28 0 0 1 4.8-22.3c3.2-10.8 6.6-22.9 12-32.4 18.8-33.6 46.9-56.3 81.7-71.5.1 0 .2-.1.2-.3v-.1a.1.1 0 0 1 .1-.1 146.79 146.79 0 0 1 30.6-9.5q4.05-.75 25.2-3c75.3-7.9 148 33.3 183 99.3a172.25 172.25 0 0 1 11 25.9 1.23 1.23 0 0 1-.2 1 1 1 0 0 1-.9.4 87.58 87.58 0 0 0-25.1.6c-18.7 3.3-37.2 10.3-55.5 16.4a225 225 0 0 1-91.8 10.6c-24.7-2.3-57-11.4-85-1.8-8.8 3-18.5 13.2-22.4 21.5a44.57 44.57 0 0 0-3 11.8c-11.7 81.6 18.6 169.4 88.2 217.5a176.4 176.4 0 0 0 76 29.9c24.6 3.5 51.5-2.2 73.9-12.5 11.5-5.3 20.5-13.8 28.4-23.1.1-.1.3-.2.4-.3l1.4-.5a.75.75 0 0 1 .8.1 1.28 1.28 0 0 1 .5.7c1.8 8.6 9.2 15.5 18.5 14.2a1.4 1.4 0 0 1 .9.3l6.9 7.8a1 1 0 0 1 .2.9c-10.6 43.5-34.7 68.1-74.9 85-15.9 6.7-33.7 10.2-50.8 12.2a88 88 0 0 1-18.5.2 285.68 285.68 0 0 1-33.2-4.9c-37.9-7.7-75.2-38.8-99.6-67.7-69.7-83.2-100-199.5-83.8-306.3Zm287.8 149.2c-14.5 20.4.8 49.1 13.8 65.6a.78.78 0 0 1 .2.8c-3.8 20.2-17.7 47.8-41.4 49.4-22.1 1.5-36.4-22.2-39.7-41.3a1.27 1.27 0 0 1 .1-.6c7.8-16.1 6.7-35.7-6.4-48.7a38.12 38.12 0 0 0-12.6-8.2 1.06 1.06 0 0 1-.6-.7.81.81 0 0 1 .3-.9 27.32 27.32 0 0 1 9.2-5.9c19.4-7.5 35 19.5 38.8 34.3 1.5 5.6 2.9 11.3 4.3 16.9 1.3 5.2 3.3 8.7 8.4 10 6 1.4 11-2.8 12.3-8.5a47.73 47.73 0 0 0-3.4-30.8 96.76 96.76 0 0 0-22.2-30.6 1 1 0 0 1-.3-.9 1.06 1.06 0 0 1 .6-.7 49.15 49.15 0 0 1 38.2-.5.9.9 0 0 1 .6.6 1.23 1.23 0 0 1-.2.7Zm-31.2-84.3c-2-2.8-2.8-11.7-8.4-4.5-20.8 26.7-58.4 50.7-76.1 2.5a1.47 1.47 0 0 0-.5-.6c-2.1-.9-4.1-.5-6.2 1.2a130.94 130.94 0 0 1-24.9 16.4c-12.5 6.5-30.1-.6-34.9-13.8a26.74 26.74 0 0 1 1-21.3 1 1 0 0 1 1.2-.5 258.09 258.09 0 0 0 61.4 7.4 427 427 0 0 0 144.8-24.6 1 1 0 0 1 .9.1.91.91 0 0 1 .4.8 71.29 71.29 0 0 1-7.1 31.2 25.23 25.23 0 0 1-6.1 8.3c-13.9 12.5-33.9 13.8-45.5-2.6Z" class="cls-3"/><path d="M306.9 610.23a308.87 308.87 0 0 0 33.2 4.9 88 88 0 0 0 18.5-.2c17.1-2 34.9-5.5 50.8-12.2 40.2-17 64.3-41.6 74.9-85a1 1 0 0 0-.2-.9l-6.9-7.8a.81.81 0 0 0-.9-.3c-9.2 1.3-16.6-5.6-18.5-14.2a1.16 1.16 0 0 0-.5-.7 1.06 1.06 0 0 0-.8-.1l-1.4.5a1.38 1.38 0 0 0-.4.3c-7.9 9.3-17 17.9-28.4 23.1-22.4 10.3-49.3 16.1-73.9 12.5a174.67 174.67 0 0 1-76-29.9c-69.6-48.1-99.8-135.9-88.2-217.5a44.57 44.57 0 0 1 3-11.8c3.8-8.3 13.6-18.5 22.4-21.5 28.1-9.7 60.3-.5 85 1.8a221.43 221.43 0 0 0 91.8-10.6c18.2-6.1 36.8-13.1 55.5-16.4a87.58 87.58 0 0 1 25.1-.6 1.09 1.09 0 0 0 .9-.4 1.16 1.16 0 0 0 .2-1 183.2 183.2 0 0 0-11-25.9c-35-66.1-107.6-107.2-183-99.3q-21.3 2.25-25.2 3a157.13 157.13 0 0 0-30.6 9.5.1.1 0 0 0-.1.1v.1c-.1.1-.1.2-.2.3-34.9 15.3-63 37.9-81.7 71.5-5.3 9.5-8.8 21.6-12 32.4a164.28 164.28 0 0 0-4.8 22.3c-16.2 106.7 14.1 223 84 306 24.2 29.2 61.5 60.3 99.4 68Zm-58.3-425c4.3 9.8 5.1 19.4 2.3 28.8-5.2 17.9-20.9 27.4-39.5 20.2q-9.15-3.6-14.4-13.2a26.89 26.89 0 0 1-6.7-8.6c-4.2-9.4-3.4-18.4 2.5-27.1a21.39 21.39 0 0 1 7.1-13.4c17.1-15.93 40.2-6.1 48.7 13.3Zm102.5 9.1a24.72 24.72 0 0 1-6-7.9c-9.5-8.2-13.9-23.4-5-33.8-.6.1-1 0-1.2-.4a.64.64 0 0 1 0-.6c7.6-21.7 32.1-24.8 48.2-10.5 14.4 12.8 20.8 36.5 7.5 52.7-11.5 13.9-31.1 11.17-43.5.5Zm-47.8 30.3c7.2-2.4 10-8.2 13-15.2 1.4-3.1 4.4-2.8 6.3-.3 2.2 3.1 3.1 5.1 7.3 5.8 6.9 1.2 4.9-4.2 7.9-6.5 2-1.6 4-1 5.7 1.9a.88.88 0 0 1 .1.7c-1.8 10.7-12.4 14.1-21.2 8.4l-1.5-.9a1 1 0 0 0-1.4.4 23.9 23.9 0 0 1-16.8 12.9c-9.2 2-17.2-4.2-19.7-13-1.1-3.8.8-7.5 5.2-4.7a.68.68 0 0 1 .4.6c2.2 6.9 6.8 12.6 14.7 9.9Z" class="cls-4"/><path d="M394.6 193.83c13.3-16.2 6.9-39.9-7.5-52.7-16.1-14.3-40.5-11.2-48.2 10.5a.64.64 0 0 0 0 .6c.2.4.6.5 1.2.4 21.7-21 46.4 19.1 26.1 33.4-6.6 4.6-14.2 4.3-21 .4a21.31 21.31 0 0 0 6 7.9c12.3 10.67 31.9 13.4 43.4-.5Z" class="cls-5"/><path d="M366.2 186c20.3-14.3-4.4-54.3-26.1-33.4-8.9 10.4-4.5 25.6 5 33.8 6.9 3.93 14.5 4.23 21.1-.4Z" class="cls-3"/><path d="M199.9 171.93a21.39 21.39 0 0 0-7.1 13.4c23.3-20.1 44.7 26.6 20.3 36.8-5.2 2.1-10.6 1.8-16.1-1q5.4 9.75 14.4 13.2c18.6 7.2 34.3-2.2 39.5-20.2 2.7-9.4 2-19-2.3-28.8-8.5-19.5-31.6-29.33-48.7-13.4Z" class="cls-5"/><path d="M213.1 222c24.4-10.1 3-56.9-20.3-36.8-5.9 8.7-6.8 17.7-2.5 27.1a25.86 25.86 0 0 0 6.7 8.6c5.5 2.93 10.9 3.33 16.1 1.1Z" class="cls-3"/><path d="M288.9 214.83c-.1-.2-.2-.5-.4-.6-4.4-2.8-6.3.9-5.2 4.7 2.5 8.8 10.5 14.9 19.7 13 7.5-1.6 13-5.9 16.8-12.9a1 1 0 0 1 1.4-.4l1.5.9c8.8 5.7 19.3 2.3 21.2-8.4a1.7 1.7 0 0 0-.1-.7c-1.8-2.8-3.7-3.5-5.7-1.9-3 2.4-1 7.8-7.9 6.5-4.2-.8-5.1-2.8-7.3-5.8-1.8-2.5-4.9-2.9-6.3.3-3 6.9-5.8 12.7-13 15.2-8.2 2.6-12.8-3.1-14.7-9.9Z" class="cls-6"/><path d="M431.5 295.73a71.29 71.29 0 0 0 7.1-31.2 1.23 1.23 0 0 0-.4-.8 1 1 0 0 0-.9-.1 421.71 421.71 0 0 1-144.8 24.6 258.09 258.09 0 0 1-61.4-7.4 1.15 1.15 0 0 0-1.2.5 26.74 26.74 0 0 0-1 21.3c4.8 13.2 22.3 20.3 34.9 13.8A137.59 137.59 0 0 0 288.7 300c2.1-1.8 4.2-2.2 6.2-1.2a1 1 0 0 1 .5.6c17.7 48.3 55.2 24.3 76.1-2.5 5.6-7.1 6.4 1.8 8.4 4.5 11.6 16.4 31.6 15.1 45.5 2.6a25.93 25.93 0 0 0 6.1-8.27ZM519 525.63c3.3 3.5 14.2 13.8 18.9 13.9 19.4.3 42.1-21 55.4-34.5 5-5.1 11.4-12.6 8.1-20.4-9.3-22.1-24.1-43.5-39.2-62a1 1 0 0 0-1.2-.3c-11.5 5.8-31.4.8-25.8-16.3.7-2.3 2.6-4.3 5.5-6.1a1.16 1.16 0 0 0 .5-.7.83.83 0 0 0-.3-.8 328.53 328.53 0 0 0-30.3-28.7 76.08 76.08 0 0 0-21.1-12.4c-8.1-3.1-19.1-.2-26.7 3.5a1 1 0 0 1-1.3-.4c-6.1-11-11.5-21.9-20.1-31.3a1.14 1.14 0 0 0-.8-.3c-10.7.6-28.8 15-33.4 24.5a5.44 5.44 0 0 0 .3 5.5 46.07 46.07 0 0 0 22.9 19.3.9.9 0 0 1 .6.6.75.75 0 0 1-.1.8c-9 16.1-11.7 32.1-.5 47.9a279.11 279.11 0 0 0 24.4 29.8 1.06 1.06 0 0 0 1.2.2c6.3-3.4 12.1-3.4 17.4.1 8.2 5.3 4.4 13.2.4 19.5a1 1 0 0 0 .1 1.2l2.6 2.8a1.06 1.06 0 0 0 1.2.2c6.6-3.2 15.7-4.6 20.4 2.2a9.68 9.68 0 0 1 .9 9.3 26.53 26.53 0 0 1-4.3 6.4 1.06 1.06 0 0 0 0 1.4c8.2 8.1 16.3 16.6 24.3 25.1Zm-30.9-72.9c-11.4 4.3-23.9-.6-25.9-13-1.8-11.3 8.7-20.7 18.2-25.2l-4.4-5a1 1 0 0 0-1.4 0l-10.8 10.1c-.9 4-3.1 6.5-6.5 7.6-12.8 3.9-22.2-6.7-19.6-19.1 4.3-19.8 38.4-36.2 56.8-32.8s28 20.6 25.5 38.4a1.08 1.08 0 0 0 .6 1.1 7.46 7.46 0 0 1 3.4 3.4 6 6 0 0 1 6.4 1.9c6.9 7.5 13.7 15 20.4 22.6a2.51 2.51 0 0 1 1.5.2 15.4 15.4 0 0 1 7.6 9.4c7.8 8.8 15.6 17.6 23.5 26.4 2.7 3 4 6.2-.3 8.5a3.34 3.34 0 0 1-4.4-.6l-8.8-9.5a1.07 1.07 0 0 0-1.4-.1c-8.9 8.1-17.9 16.2-26.9 24.3a17.16 17.16 0 0 1-4.8 3.4c-4.3 1.5-8.4-3.7-5.8-8.1a18.81 18.81 0 0 1 4.1-4.1 14.61 14.61 0 0 1-5.4-15.1 22.16 22.16 0 0 1 3.5-8.2c.9-1.2.6-1.7-.9-1.6-.6.1-1.2.1-1.7.2a6.36 6.36 0 0 0-2.6 1.3 31.38 31.38 0 0 1-9.8 5.4c1.9 6-3.9 8.2-7.9 3.9-8.5-9.1-16-17.7-22.2-25.7Z" class="cls-5"/><path d="M490.7 447.93c9.6-9 20.8-19 33.4-29.8a7.44 7.44 0 0 0-3.4-3.4 1.15 1.15 0 0 1-.6-1.1c2.6-17.8-7.1-35-25.5-38.4s-52.5 12.9-56.8 32.8c-2.7 12.4 6.8 23 19.6 19.1 3.4-1 5.6-3.6 6.5-7.6-7.1 4.8-13.9-2.6-7.1-8.7q15.9-14.4 31.9-28.6c2.8-2.5 5.8-1.1 8.2 1.4 10 10.2 27.4 25.9 8.8 38.4-9.9 6.6-18.8.1-25.1-7.4-9.5 4.6-20 14-18.2 25.2 2 12.4 14.5 17.3 25.9 13a7.84 7.84 0 0 1 2.4-4.9Z" class="cls-4"/><path d="M410.8 384.23a49.14 49.14 0 0 0-38.2.5 1.06 1.06 0 0 0-.6.7 1 1 0 0 0 .3.9 93.76 93.76 0 0 1 22.2 30.6c4.6 10.2 5.8 20.5 3.4 30.8-1.3 5.7-6.3 9.9-12.3 8.5-5.1-1.2-7.1-4.8-8.4-10-1.4-5.7-2.8-11.3-4.3-16.9-3.8-14.7-19.5-41.8-38.8-34.3a26.38 26.38 0 0 0-9.2 5.9 1 1 0 0 0-.3.9 1.06 1.06 0 0 0 .6.7 39.76 39.76 0 0 1 12.6 8.2c13.1 12.9 14.2 32.5 6.4 48.7a1.27 1.27 0 0 0-.1.6c3.4 19.1 17.6 42.8 39.7 41.3 23.7-1.6 37.6-29.2 41.4-49.4a.78.78 0 0 0-.2-.8c-13.1-16.4-28.4-45.2-13.8-65.6a1 1 0 0 0 .1-.9c0-.1-.3-.3-.5-.4Z" style="fill:#ff789b"/><path d="M505.6 421.83c18.6-12.5 1.2-28.1-8.8-38.4-2.4-2.5-5.5-3.9-8.2-1.4l-31.9 28.6c-6.8 6.1 0 13.5 7.1 8.7l10.8-10.1a1.08 1.08 0 0 1 .7-.3.91.91 0 0 1 .7.3l4.4 5c6.4 7.7 15.4 14.3 25.2 7.6Zm-11.2-28.9a76.7 76.7 0 0 1 7.8 9.3 6.36 6.36 0 0 1 .2 7c-3.6 5.9-8.2 6.3-13.8 1.3l-4.8-5-1.5-1.8a1 1 0 0 1 .1-1.4l10.6-9.6a1.09 1.09 0 0 1 1.4.2Z" class="cls-6"/><path d="m482.3 403.83 1.5 1.8a6.65 6.65 0 0 1 5-.2 1 1 0 0 1 .6.5 4 4 0 0 1-.8 4.7c5.7 5 10.3 4.5 13.8-1.3a6.54 6.54 0 0 0-.2-7 58.11 58.11 0 0 0-7.8-9.3 1 1 0 0 0-1.4 0l-10.6 9.6c-.4.2-.4.8-.1 1.2Z" class="cls-4"/><path d="M489.4 405.93a1 1 0 0 0-.6-.5 6.67 6.67 0 0 0-5 .2l4.8 5a4 4 0 0 0 .8-4.7Z" class="cls-5"/><path d="m518.4 474.63-17.7-19.8a1.08 1.08 0 0 1-.3-.7.91.91 0 0 1 .3-.7l10-8.9a1 1 0 0 1 1.4.1c4.9 5.4 9.8 10.7 14.6 16.1 4.6 5.1 10.5-.6 5.6-6.1-4.7-5.2-9.3-10.4-14-15.6a1.08 1.08 0 0 1-.3-.7.91.91 0 0 1 .3-.7l8.4-7.6a1 1 0 0 1 1.4.1c5.3 5.8 10.6 11.7 15.9 17.5 4.2 4.7 10.5.3 6.8-5-6.8-7.6-13.6-15.1-20.4-22.6a6.15 6.15 0 0 0-6.4-1.9q-19 16.2-33.4 29.8a9.86 9.86 0 0 0-2.5 4.9c6.2 8 13.7 16.6 22.3 25.8 4.1 4.2 9.9 2 8-4Z" class="cls-6"/><path d="M544.1 447.53c-5.3-5.8-10.6-11.6-15.9-17.5a1.07 1.07 0 0 0-1.4-.1l-8.4 7.6a1 1 0 0 0 0 1.4c4.7 5.2 9.4 10.4 14 15.6 4.9 5.5-1 11.1-5.6 6.1-4.8-5.4-9.7-10.8-14.6-16.1a1.07 1.07 0 0 0-1.4-.1l-10 8.9a1 1 0 0 0 0 1.4l17.7 19.8a30.31 30.31 0 0 0 9.8-5.4 6.36 6.36 0 0 1 2.6-1.3 11.14 11.14 0 0 1 1.7-.2c1.5-.1 1.8.4.9 1.6a19.3 19.3 0 0 0-3.5 8.2 14.61 14.61 0 0 0 5.4 15.1L561.5 469a1.07 1.07 0 0 0 .1-1.4q-4.05-4.5-7.8-9c-3.8-4.4 1.5-9.4 6.4-6.4a15.14 15.14 0 0 0-7.6-9.4 2 2 0 0 0-1.5-.2c3.5 5.23-2.7 9.63-7 4.93Z" class="cls-4"/><path d="M553.6 458.63q3.75 4.5 7.8 9a1 1 0 0 1-.1 1.4l-26.1 23.5c-2.2 1.9-3.6 3.2-4.1 4.1-2.6 4.3 1.5 9.6 5.8 8.1a17.16 17.16 0 0 0 4.8-3.4c9-8.1 18-16.2 26.9-24.3a1 1 0 0 1 1.4.1l8.8 9.5a3.34 3.34 0 0 0 4.4.6c4.3-2.3 2.9-5.6.3-8.5-7.9-8.8-15.7-17.6-23.5-26.4-4.9-3.2-10.2 1.8-6.4 6.3Z" class="cls-6"/></g></g></svg>